inDegrees=no
num_controls=7
num_derivatives=13
num_iterations=134
num_multipliers=7
num_parameters=0
num_slacks=7
num_states=26
objective=0.450221
objective_accelerations=0.050744
objective_balance=0.005003
objective_effort=0.019736
objective_height=0.369307
objective_ligament=0.005431
solver_duration=1980.120196
status=Solve_Succeeded
success=true
DataType=double
version=3
OpenSimVersion=4.5
endheader
time	/jointset/ground_pelvis/pelvis_tilt/value	/jointset/ground_pelvis/pelvis_tx/value	/jointset/ground_pelvis/pelvis_ty/value	/jointset/hip_l/hip_flexion_l/value	/jointset/hip_l/hip_adduction_l/value	/jointset/hip_l/hip_rotation_l/value	/jointset/back/lumbar_extension/value	/jointset/patellofemoral_l/patellar_flexion_l/value	/jointset/knee_l/knee_flexion_l/value	/jointset/knee_l/knee_adduction_l/value	/jointset/knee_l/knee_rotation_l/value	/jointset/ankle_l/ankle_angle_l/value	/jointset/subtalar_l/subtalar_angle_l/value	/jointset/ground_pelvis/pelvis_tilt/speed	/jointset/ground_pelvis/pelvis_tx/speed	/jointset/ground_pelvis/pelvis_ty/speed	/jointset/hip_l/hip_flexion_l/speed	/jointset/hip_l/hip_adduction_l/speed	/jointset/hip_l/hip_rotation_l/speed	/jointset/back/lumbar_extension/speed	/jointset/patellofemoral_l/patellar_flexion_l/speed	/jointset/knee_l/knee_flexion_l/speed	/jointset/knee_l/knee_adduction_l/speed	/jointset/knee_l/knee_rotation_l/speed	/jointset/ankle_l/ankle_angle_l/speed	/jointset/subtalar_l/subtalar_angle_l/speed	/forceset/tau_hip_flexion_l	/forceset/tau_hip_adduction_l	/forceset/tau_hip_rotation_l	/forceset/tau_knee_flexion_l	/forceset/tau_ankle_angle_l	/forceset/tau_subtalar_angle_l	/forceset/tau_lumbar_extension	lambda_cid13_p0	lambda_cid13_p1	lambda_cid13_p2	lambda_cid13_p3	lambda_cid13_p4	lambda_cid13_p5	lambda_cid14_p0	/jointset/ground_pelvis/pelvis_tilt/accel	/jointset/ground_pelvis/pelvis_tx/accel	/jointset/ground_pelvis/pelvis_ty/accel	/jointset/hip_l/hip_flexion_l/accel	/jointset/hip_l/hip_adduction_l/accel	/jointset/hip_l/hip_rotation_l/accel	/jointset/back/lumbar_extension/accel	/jointset/patellofemoral_l/patellar_flexion_l/accel	/jointset/knee_l/knee_flexion_l/accel	/jointset/knee_l/knee_adduction_l/accel	/jointset/knee_l/knee_rotation_l/accel	/jointset/ankle_l/ankle_angle_l/accel	/jointset/subtalar_l/subtalar_angle_l/accel	gamma_cid13_p0	gamma_cid13_p1	gamma_cid13_p2	gamma_cid13_p3	gamma_cid13_p4	gamma_cid13_p5	gamma_cid14_p0
0	-0.0454964312717327	0.07155760228952014	0.8961950303539556	0.1955287580552426	-0.3193664291051456	-0.53473660166675	-0.1379045077516729	0.07015288079084864	0.07015288079084844	-0.1745329164635866	-0.1666522174439081	-0.06701059314715049	0.00723296517940012	0	0	0	0	0	0	0	0	0	0	0	0	0	0.1204217039662347	-0.1555503343439773	-0.04779130704839761	-0.3038941752439793	0.310268285488733	-0.01642189681963422	-0.05520357509352024	64.06434368198778	-7.981695403146718	5.387349489627398	-45.3647305925569	-518.3074233810652	-92.29137989653435	-41.32573294294934	-2.935343878752925	-0.5029013408121726	-0.7877548919227539	9.33776240867047	-2.418953143707955	3.805013962611303	-2.41235964564722	10.64903445451438	10.64903445451361	0.9142613193477765	-0.3145298883874326	4.397813254608646	-0.249130381741877	-6.247604104962982e-08	1.698963051347996e-07	1.630271727973115e-07	3.473421387072624e-08	-3.321308287200582e-08	-8.092468164129461e-08	-6.237968775558553e-09
0.01	-0.04563518724187617	0.07153306465184996	0.8961568851890545	0.1959787216423282	-0.3194850703100706	-0.5345443146495158	-0.1380298563379629	0.07067076417507703	0.07067076417507878	-0.1744898602741123	-0.1666605599463868	-0.06679629402563796	0.007219918474327701	-0.02762639739174066	-0.004878691299716428	-0.007604370310658814	0.08959814584477759	-0.02360067978812259	0.03829128206674869	-0.02483764831867855	0.1031158690552744	0.1031158690552699	0.008601533243075892	-0.001654384734093935	0.04268237683207834	-0.00256784562088495	0.1159708382490068	-0.1551762669295556	-0.04673331883153289	-0.2969948494225275	0.2991505843813135	-0.01145825109251627	-0.05157690728318669	60.64021744333454	-9.510028871619767	5.599207802523749	-43.54506959381781	-519.2358527291827	-95.48161631861345	-41.33527528209765	-2.657585404158244	-0.4760206425742283	-0.7430853428198049	8.71163678502319	-2.311537108128773	3.816250670407466	-2.484657084061471	10.07374321008347	10.07374321008338	0.8316932627261916	-0.08876142362114778	4.176830527807237	-0.2544322978104626	-1.097615291436789e-07	2.164700088119944e-07	2.44731825746965e-07	7.804516312595874e-08	-2.406843646320037e-07	-1.381409776237428e-07	-1.041259809890034e-08
0.02	-0.04604646673289185	0.07146060657757805	0.8960434348726103	0.1973128259103879	-0.3198359006552297	-0.5339741017432716	-0.1383966193392566	0.07220598226566717	0.07220598226566721	-0.1743610699650113	-0.1666850200277457	-0.06616049500974466	0.007182429183936695	-0.05450470417442208	-0.009584087320346888	-0.01506103030861129	0.1768281361952287	-0.04643782804681935	0.07558517780152985	-0.0482828830006879	0.2034669412725284	0.2034669412725271	0.01714682392369879	-0.003223515776218721	0.08429997887614876	-0.004888517063716769	0.1115199725317483	-0.1548021995151358	-0.04567533061467528	-0.2900955236010939	0.2880328832738851	-0.006494605365405303	-0.04795023947286929	57.28474529396603	-11.05033518247951	5.812924003458538	-41.97132678671746	-519.2119809036874	-98.47703130481337	-41.3633422479756	-2.785725756941071	-0.4682422849949839	-0.7582128293814859	8.864131309805174	-2.266246837822791	3.605536696217796	-2.133876918313374	10.09607508691031	10.09607508691105	0.9030128068571702	-0.2974791499936045	4.184858297007057	-0.1996955461312589	-1.57047017237728e-07	2.630437124891892e-07	3.264364786966185e-07	1.213561123811912e-07	-4.481556463920017e-07	-1.953572736061909e-07	-1.458722742224213e-08
0.03	-0.04672286999923712	0.07134151059415324	0.895855886729705	0.1995083988604474	-0.3204112450087365	-0.5330365082295969	-0.138990885948636	0.07473139499300077	0.07473139499300006	-0.1741472581776707	-0.1667255541541673	-0.0651142602109142	0.007122767753797274	-0.08061892174453283	-0.01425002397682222	-0.02244393520782493	0.261921843297047	-0.06849283266321324	0.111777629523919	-0.07038199589703532	0.3011490183309179	0.301149018330919	0.0255866875510539	-0.004864245627064053	0.1247097600402066	-0.007025601248132628	0.1054454873277548	-0.1464843206777276	-0.04414283513240394	-0.2802136526204798	0.2749183702761723	-0.006507322325480855	-0.04328957926021297	53.07892435520425	-10.48785218964069	5.928221049595397	-38.90332044596411	-519.2778109496674	-96.66775253939505	-41.40872328085626	-2.500736202126628	-0.4679821016028939	-0.7277203298953071	8.277270414244775	-2.154468315414686	3.602677160526698	-2.219662028556987	9.534289070127995	9.534289070127905	0.8102314745549054	-0.09447625526156495	3.933447283343167	-0.2180671178120659	-1.909177294649812e-07	2.708634753476287e-07	3.944080191779344e-07	1.472411483066671e-07	-6.053434123517382e-07	-2.516523759367313e-07	-2.036725153704487e-08
